<?xml version="1.0" encoding="utf-8"?><!-- Uploaded to: SVG Repo, www.svgrepo.com, Generator: SVG Repo Mixer Tools -->
<svg
    width="25"
    height="24"
    viewBox="0 0 25 24"
    fill="none"
    xmlns="http://www.w3.org/2000/svg"
>
    <path
        fill-rule="evenodd"
        clip-rule="evenodd"
        d="M384,240H96V136a40.12,40.12,0,0,1,40-40H376a40.12,40.12,0,0,1,40,40V240Z"
        fill="currentColor"
    />
    <path
        fill-rule="evenodd"
        clip-rule="evenodd"
        d="M48,416V304a64.19,64.19,0,0,1,64-64H400a64.19,64.19,0,0,1,64,64V416"
        fill="currentColor"
    />
    <path
        fill-rule="evenodd"
        clip-rule="evenodd"
        d="M48,416v-8a24.07,24.07,0,0,1,24-24H440a24.07,24.07,0,0,1,24,24v8"
        fill="currentColor"
    />
    <path
        fill-rule="evenodd"
        clip-rule="evenodd"
        d="M112,240V224a32.09,32.09,0,0,1,32-32h80a32.09,32.09,0,0,1,32,32v16"
        fill="currentColor"
    />
    <path
        fill-rule="evenodd"
        clip-rule="evenodd"
        d="M256,240V224a32.09,32.09,0,0,1,32-32h80a32.09,32.09,0,0,1,32,32v16"
        fill="currentColor"
    />
</svg>
