<?xml version="1.0" encoding="UTF-8"?>
<svg xmlns="http://www.w3.org/2000/svg" xmlns:xlink="http://www.w3.org/1999/xlink" width="24px" height="24px" viewBox="0 0 24 24" version="1.1">
<g id="surface1">
<path style="fill:none;stroke-width:32;stroke-linecap:round;stroke-linejoin:round;stroke:currentColor;stroke-opacity:1;stroke-miterlimit:4;" d="M 176 416 L 176 480 " transform="matrix(0.046875,0,0,0.046875,0,0)"/>
<path style="fill:none;stroke-width:32;stroke-linecap:round;stroke-linejoin:round;stroke:currentColor;stroke-opacity:1;stroke-miterlimit:4;" d="M 80 32 L 272 32 C 289.666667 32 304 46.333333 304 64 L 304 476 C 304 478.25 302.25 480 300 480 L 48 480 L 48 64 C 48 46.333333 62.333333 32 80 32 Z M 80 32 " transform="matrix(0.046875,0,0,0.046875,0,0)"/>
<path style="fill:none;stroke-width:32;stroke-linecap:round;stroke-linejoin:round;stroke:currentColor;stroke-opacity:1;stroke-miterlimit:4;" d="M 320 192 L 432 192 C 449.666667 192 464 206.333333 464 224 L 464 480 L 304 480 L 304 208 C 304 199.166667 311.166667 192 320 192 Z M 320 192 " transform="matrix(0.046875,0,0,0.046875,0,0)"/>
<path style=" stroke:none;fill-rule:nonzero;fill:currentColor;fill-opacity:1;" d="M 4.597656 20.242188 C 4.277344 20.285156 3.96875 20.121094 3.828125 19.832031 C 3.683594 19.542969 3.742188 19.195312 3.96875 18.96875 C 4.195312 18.742188 4.542969 18.683594 4.832031 18.828125 C 5.121094 18.96875 5.285156 19.277344 5.242188 19.597656 C 5.199219 19.933594 4.933594 20.199219 4.597656 20.242188 Z M 4.597656 20.242188 "/>
<path style=" stroke:none;fill-rule:nonzero;fill:currentColor;fill-opacity:1;" d="M 4.597656 16.492188 C 4.277344 16.535156 3.96875 16.371094 3.828125 16.082031 C 3.683594 15.792969 3.742188 15.445312 3.96875 15.21875 C 4.195312 14.992188 4.542969 14.933594 4.832031 15.078125 C 5.121094 15.21875 5.285156 15.527344 5.242188 15.847656 C 5.199219 16.183594 4.933594 16.449219 4.597656 16.492188 Z M 4.597656 16.492188 "/>
<path style=" stroke:none;fill-rule:nonzero;fill:currentColor;fill-opacity:1;" d="M 4.597656 12.742188 C 4.277344 12.785156 3.96875 12.621094 3.828125 12.332031 C 3.683594 12.042969 3.742188 11.695312 3.96875 11.46875 C 4.195312 11.242188 4.542969 11.183594 4.832031 11.328125 C 5.121094 11.46875 5.285156 11.777344 5.242188 12.097656 C 5.199219 12.433594 4.933594 12.699219 4.597656 12.742188 Z M 4.597656 12.742188 "/>
<path style=" stroke:none;fill-rule:nonzero;fill:currentColor;fill-opacity:1;" d="M 4.597656 8.992188 C 4.277344 9.035156 3.96875 8.871094 3.828125 8.582031 C 3.683594 8.292969 3.742188 7.945312 3.96875 7.71875 C 4.195312 7.492188 4.542969 7.433594 4.832031 7.578125 C 5.121094 7.71875 5.285156 8.027344 5.242188 8.347656 C 5.199219 8.683594 4.933594 8.949219 4.597656 8.992188 Z M 4.597656 8.992188 "/>
<path style=" stroke:none;fill-rule:nonzero;fill:currentColor;fill-opacity:1;" d="M 4.597656 5.242188 C 4.277344 5.285156 3.96875 5.121094 3.828125 4.832031 C 3.683594 4.542969 3.742188 4.195312 3.96875 3.96875 C 4.195312 3.742188 4.542969 3.683594 4.832031 3.828125 C 5.121094 3.96875 5.285156 4.277344 5.242188 4.597656 C 5.199219 4.933594 4.933594 5.199219 4.597656 5.242188 Z M 4.597656 5.242188 "/>
<path style=" stroke:none;fill-rule:nonzero;fill:currentColor;fill-opacity:1;" d="M 8.347656 16.492188 C 8.027344 16.535156 7.71875 16.371094 7.578125 16.082031 C 7.433594 15.792969 7.492188 15.445312 7.71875 15.21875 C 7.945312 14.992188 8.292969 14.933594 8.582031 15.078125 C 8.871094 15.21875 9.035156 15.527344 8.992188 15.847656 C 8.949219 16.183594 8.683594 16.449219 8.347656 16.492188 Z M 8.347656 16.492188 "/>
<path style=" stroke:none;fill-rule:nonzero;fill:currentColor;fill-opacity:1;" d="M 8.347656 12.742188 C 8.027344 12.785156 7.71875 12.621094 7.578125 12.332031 C 7.433594 12.042969 7.492188 11.695312 7.71875 11.46875 C 7.945312 11.242188 8.292969 11.183594 8.582031 11.328125 C 8.871094 11.46875 9.035156 11.777344 8.992188 12.097656 C 8.949219 12.433594 8.683594 12.699219 8.347656 12.742188 Z M 8.347656 12.742188 "/>
<path style=" stroke:none;fill-rule:nonzero;fill:currentColor;fill-opacity:1;" d="M 8.347656 8.992188 C 8.027344 9.035156 7.71875 8.871094 7.578125 8.582031 C 7.433594 8.292969 7.492188 7.945312 7.71875 7.71875 C 7.945312 7.492188 8.292969 7.433594 8.582031 7.578125 C 8.871094 7.71875 9.035156 8.027344 8.992188 8.347656 C 8.949219 8.683594 8.683594 8.949219 8.347656 8.992188 Z M 8.347656 8.992188 "/>
<path style=" stroke:none;fill-rule:nonzero;fill:currentColor;fill-opacity:1;" d="M 8.347656 5.242188 C 8.027344 5.285156 7.71875 5.121094 7.578125 4.832031 C 7.433594 4.542969 7.492188 4.195312 7.71875 3.96875 C 7.945312 3.742188 8.292969 3.683594 8.582031 3.828125 C 8.871094 3.96875 9.035156 4.277344 8.992188 4.597656 C 8.949219 4.933594 8.683594 5.199219 8.347656 5.242188 Z M 8.347656 5.242188 "/>
<path style=" stroke:none;fill-rule:nonzero;fill:currentColor;fill-opacity:1;" d="M 12.097656 20.242188 C 11.777344 20.285156 11.46875 20.121094 11.328125 19.832031 C 11.183594 19.542969 11.242188 19.195312 11.46875 18.96875 C 11.695312 18.742188 12.042969 18.683594 12.332031 18.828125 C 12.621094 18.96875 12.785156 19.277344 12.742188 19.597656 C 12.699219 19.933594 12.433594 20.199219 12.097656 20.242188 Z M 12.097656 20.242188 "/>
<path style=" stroke:none;fill-rule:nonzero;fill:currentColor;fill-opacity:1;" d="M 12.097656 16.492188 C 11.777344 16.535156 11.46875 16.371094 11.328125 16.082031 C 11.183594 15.792969 11.242188 15.445312 11.46875 15.21875 C 11.695312 14.992188 12.042969 14.933594 12.332031 15.078125 C 12.621094 15.21875 12.785156 15.527344 12.742188 15.847656 C 12.699219 16.183594 12.433594 16.449219 12.097656 16.492188 Z M 12.097656 16.492188 "/>
<path style=" stroke:none;fill-rule:nonzero;fill:currentColor;fill-opacity:1;" d="M 12.097656 12.742188 C 11.777344 12.785156 11.46875 12.621094 11.328125 12.332031 C 11.183594 12.042969 11.242188 11.695312 11.46875 11.46875 C 11.695312 11.242188 12.042969 11.183594 12.332031 11.328125 C 12.621094 11.46875 12.785156 11.777344 12.742188 12.097656 C 12.699219 12.433594 12.433594 12.699219 12.097656 12.742188 Z M 12.097656 12.742188 "/>
<path style=" stroke:none;fill-rule:nonzero;fill:currentColor;fill-opacity:1;" d="M 12.527344 7.722656 C 12.234375 7.425781 11.761719 7.425781 11.46875 7.71875 C 11.175781 8.011719 11.179688 8.484375 11.472656 8.777344 C 11.765625 9.070312 12.238281 9.074219 12.53125 8.78125 C 12.824219 8.488281 12.820312 8.015625 12.527344 7.722656 Z M 12.527344 7.722656 "/>
<path style=" stroke:none;fill-rule:nonzero;fill:currentColor;fill-opacity:1;" d="M 12.097656 5.242188 C 11.777344 5.285156 11.46875 5.121094 11.328125 4.832031 C 11.183594 4.542969 11.242188 4.195312 11.46875 3.96875 C 11.695312 3.742188 12.042969 3.683594 12.332031 3.828125 C 12.621094 3.96875 12.785156 4.277344 12.742188 4.597656 C 12.699219 4.933594 12.433594 5.199219 12.097656 5.242188 Z M 12.097656 5.242188 "/>
<path style=" stroke:none;fill-rule:nonzero;fill:currentColor;fill-opacity:1;" d="M 18.75 18.75 C 18.335938 18.75 18 19.085938 18 19.5 C 18 19.914062 18.335938 20.25 18.75 20.25 C 19.164062 20.25 19.5 19.914062 19.5 19.5 C 19.5 19.085938 19.164062 18.75 18.75 18.75 Z M 18.75 18.75 "/>
<path style=" stroke:none;fill-rule:nonzero;fill:currentColor;fill-opacity:1;" d="M 18.75 15 C 18.335938 15 18 15.335938 18 15.75 C 18 16.164062 18.335938 16.5 18.75 16.5 C 19.164062 16.5 19.5 16.164062 19.5 15.75 C 19.5 15.335938 19.164062 15 18.75 15 Z M 18.75 15 "/>
<path style=" stroke:none;fill-rule:nonzero;fill:currentColor;fill-opacity:1;" d="M 18.75 11.25 C 18.335938 11.25 18 11.585938 18 12 C 18 12.414062 18.335938 12.75 18.75 12.75 C 19.164062 12.75 19.5 12.414062 19.5 12 C 19.5 11.585938 19.164062 11.25 18.75 11.25 Z M 18.75 11.25 "/>
<path style=" stroke:none;fill-rule:nonzero;fill:currentColor;fill-opacity:1;" d="M 15.75 18.75 C 15.335938 18.75 15 19.085938 15 19.5 C 15 19.914062 15.335938 20.25 15.75 20.25 C 16.164062 20.25 16.5 19.914062 16.5 19.5 C 16.5 19.085938 16.164062 18.75 15.75 18.75 Z M 15.75 18.75 "/>
<path style=" stroke:none;fill-rule:nonzero;fill:currentColor;fill-opacity:1;" d="M 15.75 15 C 15.335938 15 15 15.335938 15 15.75 C 15 16.164062 15.335938 16.5 15.75 16.5 C 16.164062 16.5 16.5 16.164062 16.5 15.75 C 16.5 15.335938 16.164062 15 15.75 15 Z M 15.75 15 "/>
<path style=" stroke:none;fill-rule:nonzero;fill:currentColor;fill-opacity:1;" d="M 15.75 11.25 C 15.335938 11.25 15 11.585938 15 12 C 15 12.414062 15.335938 12.75 15.75 12.75 C 16.164062 12.75 16.5 12.414062 16.5 12 C 16.5 11.585938 16.164062 11.25 15.75 11.25 Z M 15.75 11.25 "/>
</g>
</svg>
