<?xml version="1.0" encoding="UTF-8" standalone="no"?>
<!DOCTYPE svg PUBLIC "-//W3C//DTD SVG 1.1//EN" "http://www.w3.org/Graphics/SVG/1.1/DTD/svg11.dtd">
<svg width="100%" height="100%" viewBox="0 0 2362 992" version="1.1" xmlns="http://www.w3.org/2000/svg" xmlns:xlink="http://www.w3.org/1999/xlink" xml:space="preserve" xmlns:serif="http://www.serif.com/" style="fill-rule:evenodd;clip-rule:evenodd;stroke-linejoin:round;stroke-miterlimit:2;">
    <g transform="matrix(5.559781,0,0,5.559781,-4683.762988,-3744.114122)">
        <g transform="matrix(137.895125,0,0,137.895125,1256.59136,779.637596)">
        </g>
        <text x="1017.757px" y="779.638px" style="font-family:'Dubai-Regular', 'Dubai', sans-serif;font-size:137.895px;fill:rgb(69,94,171);">B2B</text>
    </g>
    <g transform="matrix(0.984045,0,0,0.984045,-758.079783,-301.037293)">
        <g transform="matrix(406.485372,0,0,406.485372,3117.13541,1288.425313)">
        </g>
        <text x="763.585px" y="1288.425px" style="font-family:'Dubai-Regular', 'Dubai', sans-serif;font-size:406.485px;fill:rgb(69,94,171);">P<tspan x="986.746px 1176.981px " y="1288.425px 1288.425px ">ar</tspan>tner P<tspan x="2335.464px 2541.552px " y="1288.425px 1288.425px ">or</tspan>tal</text>
    </g>
    <g transform="matrix(1.321762,0,0,1.321762,-126.535471,-458.11547)">
        <g transform="matrix(2.606248,0,0,2.606248,-2038.09577,-1228.101101)">
            <circle cx="917.799" cy="703.321" r="99.064" style="fill:rgb(255,0,0);fill-opacity:0;"/>
            <path d="M917.799,604.258C972.474,604.258 1016.863,648.647 1016.863,703.321C1016.863,757.996 972.474,802.385 917.799,802.385C863.125,802.385 818.736,757.996 818.736,703.321C818.736,648.647 863.125,604.258 917.799,604.258ZM917.799,615.144C869.133,615.144 829.622,654.655 829.622,703.321C829.622,751.988 869.133,791.499 917.799,791.499C966.466,791.499 1005.977,751.988 1005.977,703.321C1005.977,654.655 966.466,615.144 917.799,615.144Z" style="fill:rgb(202,164,107);"/>
        </g>
        <g transform="matrix(7.569495,0,0,3.82922,-7323.102813,-2474.439247)">
            <path d="M1014.217,736.712L1041.863,843.561L986.57,843.561L1014.217,736.712Z" style="fill:rgb(202,164,107);"/>
        </g>
    </g>
</svg>
